<?xml version="1.0" standalone="no"?>
<!DOCTYPE svg PUBLIC "-//W3C//DTD SVG 20010904//EN"
 "http://www.w3.org/TR/2001/REC-SVG-20010904/DTD/svg10.dtd">
<svg version="1.0" xmlns="http://www.w3.org/2000/svg"
 width="890.000000pt" height="512.000000pt" viewBox="0 0 890.000000 512.000000"
 preserveAspectRatio="xMidYMid meet">

<g transform="translate(0.000000,512.000000) scale(0.100000,-0.100000)"
fill="#000000" stroke="none">
<path d="M4315 4614 c-841 -68 -1547 -617 -1810 -1408 -75 -225 -105 -411
-105 -653 0 -791 443 -1501 1155 -1849 487 -239 1042 -276 1557 -104 304 101
550 253 786 484 316 309 513 681 593 1116 18 101 22 163 23 325 1 232 -5 307
-40 465 -87 388 -256 706 -528 987 -182 189 -339 307 -553 416 -195 99 -423
172 -634 202 -107 15 -356 26 -444 19z m683 -753 l72 -1 -2 -226 -3 -226 -170
-2 c-93 -1 -178 -6 -188 -10 -39 -18 -47 -57 -47 -231 l0 -165 203 0 203 0 -7
-82 c-4 -46 -13 -145 -20 -220 l-12 -138 -183 0 -184 0 0 -665 0 -665 -97 -1
c-54 0 -173 -1 -265 -2 l-168 -2 0 663 0 662 -140 0 -140 0 0 225 0 225 139 0
139 0 4 253 c4 229 6 257 27 312 53 145 155 234 316 275 47 12 305 27 405 23
25 -1 78 -2 118 -2z"/>
</g>
</svg>
